PathFileType	4	(X/Y/Z)	D:\walkingproject\041602jb\041602jb1.trc																																																																																		
DataRate	CameraRate	NumFrames	NumMarkers	Units	OrigDataRate	OrigDataStartFrame	OrigNumFrames																																																																														
120	120	10	28	mm	120	31	240																																																																														
Frame#	Time	head vertex			right ear			left ear			r scapula			right shoulder			left shoulder			sacrum			right elbow			right wrist			left elbow			left wrist			right g. trochanter			rigth mid-thigh			right knee			right tibia			right ankle			right heel			right mth			left g. trochanter			left mid-thigh			left knee			left tibia			left ankle			left heel			left mth			slider			fixed 1			fixed 2		
		X1	Y1	Z1	X2	Y2	Z2	X3	Y3	Z3	X4	Y4	Z4	X5	Y5	Z5	X6	Y6	Z6	X7	Y7	Z7	X8	Y8	Z8	X9	Y9	Z9	X10	Y10	Z10	X11	Y11	Z11	X12	Y12	Z12	X13	Y13	Z13	X14	Y14	Z14	X15	Y15	Z15	X16	Y16	Z16	X17	Y17	Z17	X18	Y18	Z18	X19	Y19	Z19	X20	Y20	Z20	X21	Y21	Z21	X22	Y22	Z22	X23	Y23	Z23	X24	Y24	Z24	X25	Y25	Z25	X26	Y26	Z26	X27	Y27	Z27	X28	Y28	Z28
																																																																																					
31	0.25	344.36606	246.36023	1728.03198	397.55008	149.32324	1623.11902	396.56616	362.60983	1634.6084	234.08159	178.52827	1330.37451	380.48331	16.836	1343.51648	377.99982	497.85526	1364.95496	287.95438	257.04272	983.12286	384.15283	-28.27525	1108.8656	616.01715	21.66753	1155.79578	413.58356	542.88226	1101.578	617.75916	456.91699	1157.48389	427.11267	57.20159	879.1991				356.79694	80.97874	478.45627	389.45969	134.43808	229.14085	343.81305	123.35787	95.28453	254.44104	165.35875	37.98455	452.17593	84.10741	13.37262	446.16019	456.65472	866.82599				380.00266	418.92987	481.51904	409.35361	390.05225	337.14975	335.53229	371.81995	92.47104	260.23984	324.35254	36.48975	447.66922	415.13538	2.67758	965.91101	-21.14479	9.93127	1955.65491	-11.8066	-14.00936	-4.59167	1.15969	8.91397
32	0.258	344.37054	246.28476	1727.82361	398.22476	149.18947	1623.40857	396.56616	362.60983	1634.6084	234.29279	178.57426	1330.62219	380.59457	16.48996	1343.91284	377.99982	497.85526	1364.95496	287.95438	257.04272	983.12286	384.33521	-28.25951	1109.17798	616.01715	21.66753	1155.79578	413.58356	542.88226	1101.578	617.75916	456.91699	1157.48389	427.11267	57.20159	879.1991				355.8649	80.88359	478.46432	389.74646	134.73021	228.75128	343.81305	123.35787	95.28453	254.44104	165.35875	37.98455	452.17593	84.10741	13.37262	446.24524	456.65988	866.49835				379.68643	418.91479	481.90195	409.16846	389.89966	337.35739	335.53229	371.81995	92.47104	260.23984	324.35254	36.48975	447.66922	415.13538	2.67758	965.91101	-21.14479	9.93127	1955.65491	-11.8066	-14.00936	-4.2835	0.95118	8.9866
33	0.267	344.37054	246.28476	1727.82361	398.39697	149.23656	1623.31104	396.29269	362.74963	1634.81592	234.29279	178.57426	1330.62219	380.79965	16.56964	1344.19788	378.7063	497.80362	1365.2572	287.95438	257.04272	983.12286	384.33521	-28.25951	1109.17798	616.01715	21.66753	1155.79578	413.58356	542.88226	1101.578	617.75916	456.91699	1157.48389	426.36703	57.69389	879.42853				357.43066	80.43774	478.90997	389.74646	134.73021	228.75128	343.81305	123.35787	95.28453	254.59322	165.2339	38.26465	452.17593	84.10741	13.37262	446.16019	456.65472	866.82599				380.00266	418.92987	481.51904	409.16846	389.89966	337.35739	335.53229	371.81995	92.47104	259.88281	324.29709	36.56703	447.83942	415.06601	3.03345	965.48572	-21.12002	9.70537	1956.15808	-11.79542	-13.62272	-4.2835	0.95118	8.9866
34	0.275	344.36606	246.36023	1728.03198	398.80878	149.12888	1623.40344	396.56616	362.60983	1634.6084	234.29279	178.57426	1330.62219	381.54834	17.38777	1343.45361	378.7063	497.80362	1365.2572	287.64252	257.13397	982.70398	384.15283	-28.27525	1108.8656	616.01715	21.66753	1155.79578	413.58356	542.88226	1101.578	617.75916	456.91699	1157.48389	426.36172	57.547	879.02234				355.8649	80.88359	478.46432	389.74646	134.73021	228.75128	343.81305	123.35787	95.28453	254.44104	165.35875	37.98455	452.17593	84.10741	13.37262	446.16019	456.65472	866.82599				380.20087	418.11926	480.98648	409.16846	389.89966	337.35739	335.53229	371.81995	92.47104	260.23984	324.35254	36.48975	447.66922	415.13538	2.67758	965.91101	-21.14479	9.93127	1955.65491	-11.8066	-14.00936	-4.2835	0.95118	8.9866
35	0.283	344.51849	246.3614	1727.66809	398.80878	149.12888	1623.40344	396.56616	362.60983	1634.6084	234.18332	178.86232	1330.97742	380.48331	16.836	1343.51648	378.7063	497.80362	1365.2572	287.64252	257.13397	982.70398	384.33521	-28.25951	1109.17798	616.01715	21.66753	1155.79578	413.58356	542.88226	1101.578	617.75916	456.91699	1157.48389	426.36703	57.69389	879.42853				356.79694	80.97874	478.45627	389.74646	134.73021	228.75128	343.81305	123.35787	95.28453	254.44104	165.35875	37.98455	452.17593	84.10741	13.37262	445.91177	456.69604	866.5202				380.20087	418.11926	480.98648	409.16846	389.89966	337.35739	336.18735	371.80756	92.32047	260.23984	324.35254	36.48975	447.66922	415.13538	2.67758	965.91101	-21.14479	9.93127	1955.65491	-11.8066	-14.00936	-4.2835	0.95118	8.9866
36	0.292	344.37054	246.28476	1727.82361	398.57233	149.1525	1623.22595	396.56616	362.60983	1634.6084	234.29279	178.57426	1330.62219	381.54834	17.38777	1343.45361	378.7063	497.80362	1365.2572	288.01422	257.50262	983.63293	384.33521	-28.25951	1109.17798	616.01715	21.66753	1155.79578	413.58356	542.88226	1101.578	617.75916	456.91699	1157.48389	426.36703	57.69389	879.42853				357.50327	80.81096	478.75668	389.45969	134.43808	229.14085	343.81305	123.35787	95.28453	254.87334	165.1451	37.88887	452.17593	84.10741	13.37262	446.16019	456.65472	866.82599				380.20087	418.11926	480.98648	409.16846	389.89966	337.35739	335.53229	371.81995	92.47104	260.30402	324.08118	36.13034	447.83942	415.06601	3.03345	965.67474	-21.40953	9.74698	1955.65491	-11.8066	-14.00936	-4.2835	0.95118	8.9866
37	0.3	344.37054	246.28476	1727.82361	398.65536	149.05115	1623.38696	396.68503	362.54599	1634.70313	234.29279	178.57426	1330.62219	381.48233	16.97312	1343.96619	378.7063	497.80362	1365.2572	287.95438	257.04272	983.12286	384.33521	-28.25951	1109.17798	616.01715	21.66753	1155.79578	413.58356	542.88226	1101.578	617.75916	456.91699	1157.48389	426.36703	57.69389	879.42853				357.50327	80.81096	478.75668	389.45969	134.43808	229.14085	343.68195	123.14175	94.97782	254.59322	165.2339	38.26465	452.17593	84.10741	13.37262	446.16019	456.65472	866.82599				379.6778	418.08069	481.45038	409.16846	389.89966	337.35739	336.18735	371.80756	92.32047	259.88281	324.29709	36.56703	447.83942	415.06601	3.03345	965.67474	-21.40953	9.74698	1955.65491	-11.8066	-14.00936	-4.2835	0.95118	8.9866
38	0.308	344.51849	246.3614	1727.66809	398.57233	149.1525	1623.22595	396.29269	362.74963	1634.81592	234.18332	178.86232	1330.97742	381.54834	17.38777	1343.45361	378.7063	497.80362	1365.2572	288.01422	257.50262	983.63293	384.33521	-28.25951	1109.17798	616.01715	21.66753	1155.79578	413.58356	542.88226	1101.578	617.75916	456.91699	1157.48389	426.36703	57.69389	879.42853				357.50327	80.81096	478.75668	389.45969	134.43808	229.14085	343.81305	123.35787	95.28453	254.87334	165.1451	37.88887	452.38889	83.77427	13.14709	446.16019	456.65472	866.82599				379.6778	418.08069	481.45038	409.35361	390.05225	337.14975	336.18735	371.80756	92.32047	260.23984	324.35254	36.48975	447.66922	415.13538	2.67758	965.67474	-21.40953	9.74698	1955.65491	-11.8066	-14.00936	-4.2835	0.95118	8.9866
39	0.317	344.51849	246.3614	1727.66809	399.15884	149.00821	1623.40479	396.56616	362.60983	1634.6084	234.18332	178.86232	1330.97742	381.54834	17.38777	1343.45361	378.7063	497.80362	1365.2572	288.01422	257.50262	983.63293	384.15283	-28.27525	1108.8656	616.01715	21.66753	1155.79578	413.58356	542.88226	1101.578	617.75916	456.91699	1157.48389	426.36703	57.69389	879.42853				356.79694	80.97874	478.45627	389.45969	134.43808	229.14085	344.12784	123.70636	94.96516	255.02554	165.02025	38.16899	452.17593	84.10741	13.37262	446.16019	456.65472	866.82599				379.6778	418.08069	481.45038	409.35361	390.05225	337.14975	335.53229	371.81995	92.47104	260.23984	324.35254	36.48975	447.66922	415.13538	2.67758	965.91101	-21.14479	9.93127	1955.65491	-11.8066	-14.00936	-4.2835	0.95118	8.9866
40	0.325	344.37054	246.28476	1727.82361	399.15884	149.00821	1623.40479	396.56616	362.60983	1634.6084	234.18332	178.86232	1330.97742	382.56671	18.22771	1343.16345	378.7063	497.80362	1365.2572	288.29123	257.37851	983.96783	384.34525	-27.87953	1108.82935	616.01715	21.66753	1155.79578	413.58356	542.88226	1101.578	617.75916	456.91699	1157.48389	426.36703	57.69389	879.42853				357.50327	80.81096	478.75668	389.74646	134.73021	228.75128	343.81305	123.35787	95.28453	254.59322	165.2339	38.26465	452.17593	84.10741	13.37262	446.16019	456.65472	866.82599				379.43329	418.62378	481.90988	409.35361	390.05225	337.14975	335.53229	371.81995	92.47104	260.23984	324.35254	36.48975	447.66922	415.13538	2.67758	965.91101	-21.14479	9.93127	1955.65491	-11.8066	-14.00936	-4.2835	0.95118	8.9866
